<svg xmlns="http://www.w3.org/2000/svg" viewBox="3755 510 23 23">
  <defs>
    <style>
      .cls-1 {
        fill: #231f20;
      }

      .cls-2 {
        fill: #fff;
      }

      .cls-3 {
        fill: #d72e29;
      }
    </style>
  </defs>
  <g transform="translate(2872 12)">
    <path class="cls-1" d="M11.5,0A11.5,11.5,0,1,1,0,11.5,11.5,11.5,0,0,1,11.5,0Z" transform="translate(883 498)"/>
    <g transform="translate(-29.5 -1.345)">
      <path class="cls-2" d="M18.128,15.913a3.745,3.745,0,0,0-1.858-.8c0,.009,0,.018,0,.028a4.476,4.476,0,0,1-.327,1.663,1.732,1.732,0,0,1,1.274,1.785c0,1.189-.89,1.881-2.425,1.881-.232,0-.628-.016-.991-.033V19.121a4.433,4.433,0,0,1-2.013.5v6.295H13.8V21.986c.38.033.893.049,1.008.049a5.46,5.46,0,0,0,2.574-.479,3.346,3.346,0,0,0,1.864-2.97A3.3,3.3,0,0,0,18.128,15.913Z" transform="translate(909.75 490.429)"/>
      <path class="cls-3" d="M2.013,1.7c.38-.017.809-.033,1.023-.033a3.6,3.6,0,0,1,1.118.162A4.484,4.484,0,0,0,4.481.163c0-.01,0-.018,0-.028A8.773,8.773,0,0,0,2.887,0C2.475,0,1.486.047.741.114c0,0-.082,0-.247.017L0,.163V4.645a4.436,4.436,0,0,0,2.013-.5Z" transform="translate(921 504.847)"/>
    </g>
  </g>
</svg>
